<svg version="1.1" id="Layer_1" xmlns="http://www.w3.org/2000/svg" xmlns:xlink="http://www.w3.org/1999/xlink" x="0px" y="0px"
	 width="100%" viewBox="0 0 225 225" enable-background="new 0 0 225 225" xml:space="preserve">
<path fill="#073137ff" opacity="1.000000" stroke="none" 
	d="
M127.000000,226.000000 
	C84.666672,226.000000 42.833340,226.000000 1.000006,226.000000 
	C1.000004,151.000000 1.000004,76.000015 1.000002,1.000016 
	C75.999992,1.000010 150.999985,1.000010 225.999969,1.000005 
	C225.999985,75.999985 225.999985,150.999969 226.000000,225.999969 
	C193.166672,226.000000 160.333328,226.000000 127.000000,226.000000 
M94.241676,131.732422 
	C101.262970,125.772522 108.284264,119.812630 115.070686,114.052094 
	C114.633347,113.015022 114.611412,112.812416 114.498741,112.717148 
	C96.455750,97.462250 78.437210,82.178093 60.324265,67.006645 
	C57.543751,64.677681 56.092648,66.214439 56.037018,69.359291 
	C55.960403,73.690674 56.250805,78.041145 55.941845,82.351753 
	C55.700314,85.721619 56.963223,87.865326 59.492687,89.930565 
	C68.899872,97.611290 78.154411,105.478958 87.708244,113.479080 
	C81.105347,119.034760 74.782539,124.428474 68.380226,129.726105 
	C55.611355,140.291763 55.567486,140.270752 56.063751,156.612122 
	C56.105415,157.984039 56.809650,159.335831 57.206066,160.696976 
	C58.637081,160.156326 60.338806,159.944519 61.457092,159.023956 
	C72.252876,150.136963 82.950569,141.130814 94.241676,131.732422 
M115.371422,143.582947 
	C115.107780,148.511612 114.642921,153.445145 114.762146,158.364532 
	C114.784149,159.272461 117.160301,160.872299 118.463585,160.886368 
	C134.595306,161.060806 150.729858,160.949997 166.862885,161.046417 
	C169.788742,161.063889 171.195145,160.249817 171.019196,157.102158 
	C170.833817,153.785995 170.867493,150.446686 171.010910,147.126358 
	C171.136658,144.215256 170.174454,142.924164 167.033142,142.950882 
	C150.071259,143.095169 133.108063,143.082062 115.371422,143.582947 
z"/>
<path fill="#54fffcff" opacity="1.000000" stroke="none" 
	d="
M93.958984,131.945572 
	C82.950569,141.130814 72.252876,150.136963 61.457092,159.023956 
	C60.338806,159.944519 58.637081,160.156326 57.206062,160.696976 
	C56.809650,159.335831 56.105415,157.984039 56.063751,156.612122 
	C55.567486,140.270752 55.611355,140.291763 68.380226,129.726105 
	C74.782539,124.428474 81.105347,119.034760 87.708244,113.479080 
	C78.154411,105.478958 68.899872,97.611290 59.492687,89.930565 
	C56.963223,87.865326 55.700314,85.721619 55.941845,82.351753 
	C56.250805,78.041145 55.960403,73.690674 56.037018,69.359291 
	C56.092648,66.214439 57.543751,64.677681 60.324265,67.006645 
	C78.437210,82.178093 96.455750,97.462250 114.498741,112.717148 
	C114.611412,112.812416 114.633347,113.015022 115.070686,114.052094 
	C108.284264,119.812630 101.262970,125.772522 93.958984,131.945572 
z"/>
<path fill="#54fffcff" opacity="1.000000" stroke="none" 
	d="
M115.758362,143.353088 
	C133.108063,143.082062 150.071259,143.095169 167.033142,142.950882 
	C170.174454,142.924164 171.136658,144.215256 171.010910,147.126358 
	C170.867493,150.446686 170.833817,153.785995 171.019196,157.102158 
	C171.195145,160.249817 169.788742,161.063889 166.862885,161.046417 
	C150.729858,160.949997 134.595306,161.060806 118.463585,160.886368 
	C117.160301,160.872299 114.784149,159.272461 114.762146,158.364532 
	C114.642921,153.445145 115.107780,148.511612 115.758362,143.353088 
z"/>
</svg>